<svg width="73" height="97" viewBox="0 0 73 97" fill="none" xmlns="http://www.w3.org/2000/svg">
<g clip-path="url(#clip0_9_1854)">
<path d="M85.16 23.6831L45.16 63.6831C43.6 65.2431 41.08 65.2431 39.52 63.6831L28.2 52.3631C26.64 50.8031 26.64 48.2831 28.2 46.7231C29.76 45.1631 32.28 45.1631 33.84 46.7231L42.32 55.2031L79.48 18.0431C81.04 16.4831 83.56 16.4831 85.12 18.0431C86.72 19.6031 86.72 22.1231 85.16 23.6831ZM48 80.1231C29.16 80.1231 14.08 63.7631 16.2 44.5231C17.76 30.4431 28.68 18.8831 42.64 16.5631C49.88 15.3631 56.76 16.6431 62.6 19.6831C64.16 20.4831 66.04 20.2031 67.28 18.9631C69.2 17.0431 68.72 13.8031 66.32 12.5631C60.44 9.56307 53.8 7.92307 46.72 8.12307C26.16 8.76307 9.08 25.4831 8.04 46.0031C6.88 69.0831 25.2 88.1231 48 88.1231C52.8 88.1231 57.36 87.2831 61.64 85.7231C64.36 84.7231 65.12 81.2031 63.04 79.1231C61.96 78.0431 60.32 77.6431 58.88 78.2031C55.48 79.4431 51.8 80.1231 48 80.1231ZM76 60.1231H68C65.8 60.1231 64 61.9231 64 64.1231C64 66.3231 65.8 68.1231 68 68.1231H76V76.1231C76 78.3231 77.8 80.1231 80 80.1231C82.2 80.1231 84 78.3231 84 76.1231V68.1231H92C94.2 68.1231 96 66.3231 96 64.1231C96 61.9231 94.2 60.1231 92 60.1231H84V52.1231C84 49.9231 82.2 48.1231 80 48.1231C77.8 48.1231 76 49.9231 76 52.1231V60.1231Z" fill="white"/>
</g>
<defs>
<clipPath id="clip0_9_1854">
<rect width="96" height="96" fill="white" transform="translate(0 0.123047)"/>
</clipPath>
</defs>
</svg>
