<svg width="49" height="50" viewBox="0 0 49 50" fill="none" xmlns="http://www.w3.org/2000/svg">
<g clip-path="url(#clip0_5_1743)">
<path d="M48.8047 24.623C48.8047 11.3682 38.0595 0.623047 24.8047 0.623047C11.5499 0.623047 0.804688 11.3682 0.804688 24.623C0.804688 37.8779 11.5499 48.623 24.8047 48.623C38.0595 48.623 48.8047 37.8779 48.8047 24.623Z" fill="#002E47"/>
<path d="M13.866 21.722L22.9607 21.7238L28.491 21.7248V16.246L13.866 21.722Z" fill="#FF9D28"/>
<path d="M28.4905 16.2461V35.5888L35.3976 13.6591L28.4905 16.2461Z" fill="#68C5ED"/>
<path d="M28.4904 21.7248L22.9602 21.7239L28.4904 35.5888V21.7248Z" fill="#044D80"/>
<path d="M13.866 21.722L24.3789 25.2813L22.9607 21.7238L13.866 21.722Z" fill="#E54747"/>
</g>
<defs>
<clipPath id="clip0_5_1743">
<rect width="48" height="49" fill="white" transform="translate(0.804688 0.123047)"/>
</clipPath>
</defs>
</svg>
