<svg width="56" height="57" viewBox="0 0 56 57" fill="none" xmlns="http://www.w3.org/2000/svg">
<g clip-path="url(#clip0_9_2084)">
<mask id="mask0_9_2084" style="mask-type:luminance" maskUnits="userSpaceOnUse" x="0" y="0" width="56" height="57">
<path d="M56 28.4431C56 12.9791 43.464 0.443115 28 0.443115C12.536 0.443115 0 12.9791 0 28.4431C0 43.9071 12.536 56.4431 28 56.4431C43.464 56.4431 56 43.9071 56 28.4431Z" fill="white"/>
</mask>
<g mask="url(#mask0_9_2084)">
<path d="M28 54.4431C42.3594 54.4431 54 42.8025 54 28.4431C54 14.0837 42.3594 2.44312 28 2.44312C13.6406 2.44312 2 14.0837 2 28.4431C2 42.8025 13.6406 54.4431 28 54.4431Z" fill="#E0FFED" stroke="white" stroke-width="4"/>
<path d="M20.6265 25.7234C20.6265 25.7234 13.3277 20.1808 20.6265 13.7284C20.6265 13.7284 25.9293 3.78685 36.2011 9.55479C46.4728 15.3227 35.7251 21.1658 35.7251 21.1658C35.7251 21.1658 26.1715 31.3327 20.6265 25.7234Z" fill="#0B0F12"/>
<path d="M38.0593 41.4495L37.4103 40.8652C35.0313 38.7286 31.9214 37.5377 28.6905 37.5264H25.2061C21.9756 37.5393 18.8662 38.7299 16.4864 40.8652L15.8373 41.4495L5.1106 45.7651C8.79685 50.7977 14.1099 54.4704 20.1929 56.1908C25.6362 57.72 31.426 57.5997 36.7979 55.8456C42.1697 54.0915 46.8709 50.7862 50.2806 46.3661L38.0593 41.4495Z" fill="#415DF9"/>
<path d="M20.8858 37.5598L22.3138 28.9121C22.3138 28.9121 17.5036 28.453 18.3805 24.2043C19.2573 19.9555 24.0007 25.2645 24.0007 25.2645L24.5602 15.3979C24.5602 15.3979 26.0133 20.256 30.5061 17.3762C34.999 14.4964 37.404 19.8804 37.404 19.8804C37.404 19.8804 39.9761 36.65 33.0698 35.9655L32.0844 39.68C31.8384 40.4053 31.4509 41.0747 30.9444 41.6493C30.4378 42.224 29.8223 42.6926 29.1335 43.028C28.4446 43.3633 27.6961 43.5588 26.9312 43.6031C26.1662 43.6474 25.4001 43.5396 24.6771 43.2861C23.4788 42.9192 22.4454 42.1474 21.7537 41.1028C21.0621 40.0582 20.7553 38.8057 20.8858 37.5598Z" fill="#F8BBB0"/>
<path d="M33.0698 35.9656C33.0698 35.9656 29.9382 35.7819 28.3098 34.2961L32.4352 38.3613L33.0698 35.9656Z" fill="#0B0F12"/>
</g>
</g>
<rect x="1" y="1.44312" width="54" height="54" rx="27" stroke="#425DF9" stroke-width="2"/>
<defs>
<clipPath id="clip0_9_2084">
<rect width="56" height="56" fill="white" transform="translate(0 0.443115)"/>
</clipPath>
</defs>
</svg>
