<svg width="30" height="31" viewBox="0 0 30 31" fill="none" xmlns="http://www.w3.org/2000/svg">
<g clip-path="url(#clip0_9_2316)">
<path d="M30 15.2397C30 6.95547 23.2843 0.239746 15 0.239746C6.71573 0.239746 0 6.95547 0 15.2397C0 23.524 6.71573 30.2397 15 30.2397C23.2843 30.2397 30 23.524 30 15.2397Z" fill="#52C08B"/>
<mask id="mask0_9_2316" style="mask-type:luminance" maskUnits="userSpaceOnUse" x="10" y="8" width="12" height="13">
<path d="M22 8.23975H10V20.2397H22V8.23975Z" fill="white"/>
</mask>
<g mask="url(#mask0_9_2316)">
<path d="M21.9969 20.2399L21.9999 20.2394V15.8384C21.9999 13.6854 21.5364 12.0269 19.0194 12.0269C17.8094 12.0269 16.9974 12.6909 16.6659 13.3204H16.6309V12.2279H14.2444V20.2394H16.7294V16.2724C16.7294 15.2279 16.9274 14.2179 18.2209 14.2179C19.4954 14.2179 19.5144 15.4099 19.5144 16.3394V20.2399H21.9969Z" fill="white"/>
<path d="M10.198 12.228H12.686V20.2395H10.198V12.228Z" fill="white"/>
<path d="M11.441 8.23975C10.6455 8.23975 10 8.88525 10 9.68075C10 10.4762 10.6455 11.1352 11.441 11.1352C12.2365 11.1352 12.882 10.4762 12.882 9.68075C12.8815 8.88525 12.236 8.23975 11.441 8.23975Z" fill="white"/>
</g>
</g>
<defs>
<clipPath id="clip0_9_2316">
<rect width="30" height="30" fill="white" transform="translate(0 0.239746)"/>
</clipPath>
</defs>
</svg>
