<svg width="147" height="31" viewBox="0 0 147 31" fill="none" xmlns="http://www.w3.org/2000/svg">
<g clip-path="url(#clip0_9_2327)">
<mask id="mask0_9_2327" style="mask-type:luminance" maskUnits="userSpaceOnUse" x="0" y="0" width="147" height="31">
<path d="M146.074 0.239746H0V30.2397H146.074V0.239746Z" fill="white"/>
</mask>
<g mask="url(#mask0_9_2327)">
<path d="M14.9989 0.239746C6.71573 0.239746 0 6.95549 0 15.2386C0 23.5217 6.71573 30.2374 14.9989 30.2374C23.282 30.2374 29.9977 23.5217 29.9977 15.2386C30 6.95549 23.2843 0.239746 14.9989 0.239746ZM14.9851 2.31282C22.1402 2.31282 27.9407 8.11329 27.9407 15.2683C27.9407 22.4234 22.1402 28.2238 14.9851 28.2238C7.83006 28.2238 2.02959 22.4234 2.02959 15.2683C2.02959 8.11329 7.83006 2.31282 14.9851 2.31282Z" fill="#52C08B"/>
<path d="M14.9853 4.45703C9.01556 4.45703 4.17383 9.29648 4.17383 15.2685C4.17383 21.2383 9.01327 26.0801 14.983 26.0801C20.9528 26.0801 25.7946 21.2406 25.7946 15.2685C25.7969 9.29876 20.9574 4.45703 14.9853 4.45703ZM14.8984 6.59874C19.6646 6.59874 23.5293 10.4634 23.5293 15.2296C23.5293 19.9959 19.6646 23.8606 14.8984 23.8606C10.1322 23.8606 6.26749 19.9959 6.26749 15.2296C6.26749 10.4634 10.1322 6.60103 14.8984 6.59874Z" fill="#52C08B"/>
<path d="M14.8982 8.81348C11.3538 8.81348 8.47989 11.6874 8.48218 15.2318C8.48218 18.7761 11.3561 21.6478 14.8982 21.6478C18.4425 21.6478 21.3164 18.7738 21.3164 15.2318C21.3164 11.6874 18.4425 8.81348 14.8982 8.81348ZM14.9027 10.914C17.2801 10.914 19.209 12.8407 19.209 15.2203C19.209 17.5977 17.2824 19.5267 14.9027 19.5267C12.5253 19.5267 10.5964 17.6 10.5964 15.2203C10.5964 12.8429 12.5253 10.914 14.9027 10.914Z" fill="#52C08B"/>
<path d="M10.5964 15.3604H8.48218V23.5909H10.5964V15.3604Z" fill="#52C08B"/>
<path d="M14.9074 16.9545C15.8476 16.9545 16.6098 16.1923 16.6098 15.2521C16.6098 14.3119 15.8476 13.5498 14.9074 13.5498C13.9672 13.5498 13.2051 14.3119 13.2051 15.2521C13.2051 16.1923 13.9672 16.9545 14.9074 16.9545Z" fill="#52C08B"/>
<path d="M49.907 14.8975C49.907 18.2154 47.5823 20.7072 44.4132 20.7072C42.8069 20.7072 41.5187 20.0734 40.6515 18.975V24.2355H38.4114V9.32128H40.4821V11.074C41.3699 9.82697 42.7428 9.08789 44.4544 9.08789C47.6464 9.08789 49.907 11.582 49.907 14.8975ZM47.6875 14.8975C47.6875 12.6803 46.1865 11.0534 44.1386 11.0534C42.0266 11.0534 40.5462 12.6369 40.5462 14.8975C40.5462 17.1582 42.0038 18.7211 44.1386 18.7211C46.1682 18.7211 47.6875 17.0965 47.6875 14.8975Z" fill="white"/>
<path d="M56.6846 18.7206C58.3526 18.7206 59.2839 18.1074 59.7896 16.945L61.627 18.1074C60.7827 19.5855 59.2816 20.7067 56.6205 20.7067C53.1128 20.7067 50.7903 18.2126 50.7903 14.8971C50.7903 11.6639 53.305 9.06689 56.4512 9.06689C59.8949 9.06689 62.0297 11.7715 62.0297 14.6454C62.0297 15.0252 62.0091 15.428 61.9885 15.6385H53.0098C53.3462 17.5376 54.8037 18.7206 56.6846 18.7206ZM59.8331 13.9269C59.5379 12.0461 58.2497 10.8837 56.5381 10.8837C54.806 10.8837 53.369 12.0026 53.0304 13.9269H59.8331Z" fill="white"/>
<path d="M69.0473 9.06689V11.1583C67.0612 11.1789 65.7523 12.3618 65.7523 13.9269V20.455H63.5122V9.32088H65.6242V10.7372C66.3633 9.78537 67.5874 9.06689 69.0473 9.06689Z" fill="white"/>
<path d="M69.2144 17.9202L71.2417 17.1377C71.5803 18.236 72.5299 18.8698 73.9669 18.8698C75.2139 18.8698 76.017 18.3412 76.017 17.4328C76.017 15.0028 69.7429 16.1011 69.7429 12.2776C69.7429 10.2915 71.3904 9.08789 73.9257 9.08789C76.017 9.08789 77.5181 9.93222 78.0032 11.4333L75.9759 12.2158C75.6372 11.3074 74.9187 10.8635 73.8845 10.8635C72.7427 10.8635 72.1089 11.3715 72.1089 12.1518C72.1089 14.4331 78.383 13.186 78.383 17.2635C78.383 19.4395 76.6074 20.7072 73.9051 20.7072C71.5391 20.7072 69.807 19.737 69.2144 17.9202Z" fill="white"/>
<path d="M79.0466 14.8975C79.0466 11.5591 81.4767 9.08789 84.8997 9.08789C88.3434 9.08789 90.7734 11.5591 90.7734 14.8975C90.7734 18.2154 88.3434 20.7072 84.8997 20.7072C81.4744 20.7072 79.0466 18.2154 79.0466 14.8975ZM88.531 14.8975C88.531 12.6574 87.0735 11.074 84.918 11.074C82.7626 11.074 81.2844 12.6574 81.2844 14.8975C81.2844 17.0942 82.7626 18.7005 84.918 18.7005C87.0529 18.7005 88.531 17.1171 88.531 14.8975Z" fill="white"/>
<path d="M102.569 13.5884V20.4552H100.329V13.9888C100.329 12.1515 99.2304 11.0531 97.4548 11.0737C95.7867 11.0737 94.5603 12.3002 94.5397 13.6731V20.4552H92.2996V9.32104H94.4115V10.7374C95.1712 9.76494 96.4388 9.06934 98.0886 9.06934C100.878 9.06706 102.569 10.8632 102.569 13.5884Z" fill="white"/>
<path d="M104.088 5.83431C104.088 4.90532 104.807 4.22803 105.715 4.22803C106.623 4.22803 107.342 4.90532 107.342 5.83431C107.342 6.7633 106.623 7.39712 105.715 7.39712C104.807 7.39941 104.088 6.76559 104.088 5.83431ZM104.596 9.32146H106.836V20.4557H104.596V9.32146Z" fill="white"/>
<path d="M116.856 18.6386V20.4554H107.836V18.8491L113.9 11.138H108.111V9.32129H116.625V10.9893L110.605 18.6363H116.856V18.6386Z" fill="white"/>
<path d="M122.885 18.7206C124.553 18.7206 125.485 18.1074 125.99 16.945L127.828 18.1074C126.983 19.5855 125.482 20.7067 122.821 20.7067C119.314 20.7067 116.991 18.2126 116.991 14.8971C116.991 11.6639 119.506 9.06689 122.654 9.06689C126.098 9.06689 128.233 11.7715 128.233 14.6454C128.233 15.0252 128.212 15.428 128.192 15.6385H119.213C119.547 17.5376 121.005 18.7206 122.885 18.7206ZM126.034 13.9269C125.739 12.0461 124.45 10.8837 122.739 10.8837C121.007 10.8837 119.57 12.0026 119.231 13.9269H126.034Z" fill="white"/>
<path d="M129.738 5.01025H131.979V20.453H129.738V5.01025Z" fill="white"/>
<path d="M144.14 9.32129L139.747 20.4554L138.269 24.2377H136.072L137.594 20.4554H136.96L132.818 9.32129H135.12L138.353 18.6157L141.818 9.32129H144.14Z" fill="white"/>
<path d="M143.284 19.2724C143.284 18.4487 143.898 17.856 144.678 17.856C145.481 17.856 146.071 18.4464 146.071 19.2724C146.071 20.055 145.479 20.6453 144.678 20.6453C143.895 20.6453 143.284 20.0527 143.284 19.2724Z" fill="white"/>
</g>
</g>
<defs>
<clipPath id="clip0_9_2327">
<rect width="147" height="30" fill="white" transform="translate(0 0.239746)"/>
</clipPath>
</defs>
</svg>
