<svg width="49" height="50" viewBox="0 0 49 50" fill="none" xmlns="http://www.w3.org/2000/svg">
<g clip-path="url(#clip0_5_1717)">
<path d="M48.7734 24.623C48.7734 11.3682 38.0283 0.623047 24.7734 0.623047C11.5186 0.623047 0.773438 11.3682 0.773438 24.623C0.773438 37.8779 11.5186 48.623 24.7734 48.623C38.0283 48.623 48.7734 37.8779 48.7734 24.623Z" fill="#95BF46"/>
<path opacity="0.72" d="M31.0051 18.0332C30.9995 17.9914 30.9804 17.953 30.9511 17.9247C30.9218 17.8963 30.8841 17.8797 30.8445 17.8777C30.7716 17.8777 29.4861 17.8467 29.4861 17.8467C29.4861 17.8467 28.6976 17.0376 28.4053 16.7263V33.5421L32.9915 32.3297C32.9915 32.3297 31.0197 18.1265 31.0051 18.0332Z" fill="white"/>
<path d="M27.581 16.1735C27.4986 15.9308 27.395 15.6948 27.2714 15.4679C26.8231 14.6662 26.154 14.2315 25.363 14.2315C25.3052 14.2296 25.2474 14.235 25.1912 14.2475C25.174 14.2155 25.1396 14.1995 25.1225 14.1674C24.7789 13.816 24.3323 13.6558 23.7989 13.6706C22.7683 13.7027 21.7376 14.3918 20.9109 15.627C20.3265 16.4932 19.8803 17.5838 19.7592 18.4339C18.5731 18.7705 17.7481 19.0113 17.7309 19.0273C17.1297 19.2036 17.1121 19.2196 17.0438 19.7485C16.9923 20.1491 15.4119 31.4403 15.4119 31.4403L28.406 33.5429V15.9812C28.3427 15.9834 28.2797 15.9887 28.217 15.9972C28.217 15.9972 27.9765 16.0613 27.581 16.1735ZM25.2088 16.8634C24.5217 17.0557 23.7646 17.2801 23.0255 17.4888C23.2316 16.7348 23.6443 15.9812 24.1257 15.4855C24.3147 15.3093 24.5728 15.1005 24.8648 14.9723C25.1573 15.5481 25.226 16.3341 25.2088 16.8634ZM23.7989 14.3293C24.0155 14.3229 24.2297 14.3722 24.4182 14.4719C24.1433 14.6001 23.8681 14.8088 23.6104 15.0492C22.9572 15.7071 22.4586 16.732 22.2525 17.7116C21.6333 17.8883 21.0144 18.0645 20.4489 18.2248C20.8251 16.6867 22.2173 14.3613 23.7989 14.3293ZM21.805 23.1504C21.8737 24.1765 24.7789 24.4012 24.9507 26.8228C25.0709 28.7315 23.8676 30.0304 22.1314 30.1269C20.0345 30.2551 18.8827 29.1005 18.8827 29.1005L19.3293 27.3376C19.3293 27.3376 20.4811 28.1557 21.4095 28.0916C22.0107 28.0596 22.2349 27.5944 22.2173 27.2735C22.1314 25.9265 19.7592 26.0066 19.6046 23.7934C19.4672 21.9328 20.7735 20.0566 23.6615 19.8799C24.7781 19.8158 25.3462 20.0726 25.3462 20.0726L24.693 22.3803C24.693 22.3803 23.954 22.0598 23.077 22.1239C21.805 22.2045 21.7879 22.9577 21.805 23.1504ZM25.8963 16.6707C25.8963 16.1899 25.8276 15.5 25.5867 14.9226C26.3777 15.0669 26.7556 15.8842 26.9278 16.3822C26.6184 16.4623 26.2745 16.5585 25.8963 16.6707Z" fill="white"/>
</g>
<defs>
<clipPath id="clip0_5_1717">
<rect width="48" height="49" fill="white" transform="translate(0.773438 0.123047)"/>
</clipPath>
</defs>
</svg>
