<svg width="147" height="30" viewBox="0 0 147 30" fill="none" xmlns="http://www.w3.org/2000/svg">
<g clip-path="url(#clip0_1_1259)">
<path d="M14.9989 0C6.71573 0 0 6.71574 0 14.9989C0 23.282 6.71573 29.9977 14.9989 29.9977C23.282 29.9977 29.9977 23.282 29.9977 14.9989C30 6.71574 23.2843 0 14.9989 0ZM14.9851 2.07307C22.1402 2.07307 27.9407 7.87354 27.9407 15.0286C27.9407 22.1837 22.1402 27.9841 14.9851 27.9841C7.83006 27.9841 2.02959 22.1837 2.02959 15.0286C2.02959 7.87354 7.83006 2.07307 14.9851 2.07307Z" fill="#52C08B"/>
<path d="M14.9853 4.21741C9.01556 4.21741 4.17383 9.05686 4.17383 15.0289C4.17383 20.9987 9.01327 25.8405 14.983 25.8405C20.9528 25.8405 25.7946 21.001 25.7946 15.0289C25.7969 9.05914 20.9574 4.21741 14.9853 4.21741ZM14.8984 6.35912C19.6646 6.35912 23.5293 10.2238 23.5293 14.99C23.5293 19.7563 19.6646 23.621 14.8984 23.621C10.1322 23.621 6.26749 19.7563 6.26749 14.99C6.26749 10.2238 10.1322 6.36141 14.8984 6.35912Z" fill="#52C08B"/>
<path d="M14.8982 8.57367C11.3538 8.57367 8.47989 11.4476 8.48218 14.9919C8.48218 18.5363 11.3561 21.4079 14.8982 21.4079C18.4425 21.4079 21.3164 18.534 21.3164 14.9919C21.3164 11.4476 18.4425 8.57367 14.8982 8.57367ZM14.9027 10.6742C17.2801 10.6742 19.209 12.6008 19.209 14.9805C19.209 17.3579 17.2824 19.2868 14.9027 19.2868C12.5253 19.2868 10.5964 17.3602 10.5964 14.9805C10.5964 12.6031 12.5253 10.6742 14.9027 10.6742Z" fill="#52C08B"/>
<path d="M10.5964 15.1204H8.48218V23.3509H10.5964V15.1204Z" fill="#52C08B"/>
<path d="M14.9074 16.7148C15.8476 16.7148 16.6098 15.9526 16.6098 15.0124C16.6098 14.0722 15.8476 13.31 14.9074 13.31C13.9672 13.31 13.2051 14.0722 13.2051 15.0124C13.2051 15.9526 13.9672 16.7148 14.9074 16.7148Z" fill="#52C08B"/>
<path d="M49.907 14.6576C49.907 17.9754 47.5823 20.4672 44.4132 20.4672C42.8069 20.4672 41.5187 19.8334 40.6515 18.7351V23.9956H38.4114V9.08135H40.4821V10.8341C41.3699 9.58704 42.7428 8.84796 44.4544 8.84796C47.6464 8.84796 49.907 11.3421 49.907 14.6576ZM47.6875 14.6576C47.6875 12.4404 46.1865 10.8135 44.1386 10.8135C42.0266 10.8135 40.5462 12.3969 40.5462 14.6576C40.5462 16.9183 42.0038 18.4811 44.1386 18.4811C46.1682 18.4811 47.6875 16.8565 47.6875 14.6576Z" fill="#0C0E12"/>
<path d="M56.6846 18.4811C58.3526 18.4811 59.2839 17.8678 59.7896 16.7055L61.627 17.8678C60.7827 19.346 59.2816 20.4672 56.6205 20.4672C53.1128 20.4672 50.7903 17.9731 50.7903 14.6576C50.7903 11.4244 53.305 8.82733 56.4512 8.82733C59.8949 8.82733 62.0297 11.5319 62.0297 14.4059C62.0297 14.7857 62.0091 15.1884 61.9885 15.3989H53.0098C53.3462 17.2981 54.8037 18.4811 56.6846 18.4811ZM59.8331 13.6874C59.5379 11.8065 58.2497 10.6441 56.5381 10.6441C54.806 10.6441 53.369 11.763 53.0304 13.6874H59.8331Z" fill="#0C0E12"/>
<path d="M69.0473 8.82733V10.9187C67.0612 10.9393 65.7523 12.1223 65.7523 13.6874V20.2155H63.5122V9.08132H65.6242V10.4977C66.3633 9.54581 67.5874 8.82733 69.0473 8.82733Z" fill="#0C0E12"/>
<path d="M69.2144 17.6803L71.2417 16.8977C71.5803 17.996 72.5299 18.6299 73.9669 18.6299C75.2139 18.6299 76.017 18.1013 76.017 17.1929C76.017 14.7629 69.7429 15.8612 69.7429 12.0377C69.7429 10.0516 71.3904 8.84796 73.9257 8.84796C76.017 8.84796 77.5181 9.69229 78.0032 11.1934L75.9759 11.9759C75.6372 11.0675 74.9187 10.6236 73.8845 10.6236C72.7427 10.6236 72.1089 11.1316 72.1089 11.9118C72.1089 14.1931 78.383 12.9461 78.383 17.0236C78.383 19.1996 76.6074 20.4672 73.9051 20.4672C71.5391 20.4672 69.807 19.4971 69.2144 17.6803Z" fill="#0C0E12"/>
<path d="M79.0466 14.6576C79.0466 11.3192 81.4767 8.84796 84.8997 8.84796C88.3434 8.84796 90.7734 11.3192 90.7734 14.6576C90.7734 17.9754 88.3434 20.4672 84.8997 20.4672C81.4744 20.4672 79.0466 17.9754 79.0466 14.6576ZM88.531 14.6576C88.531 12.4175 87.0735 10.8341 84.918 10.8341C82.7626 10.8341 81.2844 12.4175 81.2844 14.6576C81.2844 16.8542 82.7626 18.4605 84.918 18.4605C87.0529 18.4605 88.531 16.8771 88.531 14.6576Z" fill="#0C0E12"/>
<path d="M102.569 13.3489V20.2156H100.329V13.7493C100.329 11.9119 99.2304 10.8136 97.4548 10.8342C95.7867 10.8342 94.5603 12.0606 94.5397 13.4335V20.2156H92.2996V9.08141H94.4115V10.4978C95.1712 9.52531 96.4388 8.82971 98.0886 8.82971C100.878 8.82743 102.569 10.6237 102.569 13.3489Z" fill="#0C0E12"/>
<path d="M104.088 5.59444C104.088 4.66545 104.807 3.98816 105.715 3.98816C106.623 3.98816 107.342 4.66545 107.342 5.59444C107.342 6.52343 106.623 7.15725 105.715 7.15725C104.807 7.15954 104.088 6.52572 104.088 5.59444ZM104.596 9.08159H106.836V20.2157H104.596V9.08159Z" fill="#0C0E12"/>
<path d="M116.856 18.3989V20.2157H107.836V18.6095L113.9 10.8984H108.111V9.08154H116.625V10.7496L110.605 18.3967H116.856V18.3989Z" fill="#0C0E12"/>
<path d="M122.885 18.4811C124.553 18.4811 125.485 17.8678 125.99 16.7055L127.828 17.8678C126.983 19.346 125.482 20.4672 122.821 20.4672C119.314 20.4672 116.991 17.9731 116.991 14.6576C116.991 11.4244 119.506 8.82733 122.654 8.82733C126.098 8.82733 128.233 11.5319 128.233 14.4059C128.233 14.7857 128.212 15.1884 128.192 15.3989H119.213C119.547 17.2981 121.005 18.4811 122.885 18.4811ZM126.034 13.6874C125.739 11.8065 124.45 10.6441 122.739 10.6441C121.007 10.6441 119.57 11.763 119.231 13.6874H126.034Z" fill="#0C0E12"/>
<path d="M129.738 4.77045H131.979V20.2132H129.738V4.77045Z" fill="#0C0E12"/>
<path d="M144.14 9.08154L139.747 20.2157L138.269 23.9981H136.072L137.594 20.2157H136.96L132.818 9.08154H135.12L138.353 18.3761L141.818 9.08154H144.14Z" fill="#0C0E12"/>
<path d="M143.284 19.0326C143.284 18.2089 143.898 17.6163 144.678 17.6163C145.481 17.6163 146.071 18.2066 146.071 19.0326C146.071 19.8152 145.479 20.4055 144.678 20.4055C143.895 20.4055 143.284 19.8129 143.284 19.0326Z" fill="#0C0E12"/>
</g>
<defs>
<clipPath id="clip0_1_1259">
<rect width="147" height="30" fill="white"/>
</clipPath>
</defs>
</svg>
