<svg width="30" height="31" viewBox="0 0 30 31" fill="none" xmlns="http://www.w3.org/2000/svg">
<g clip-path="url(#clip0_9_2308)">
<path d="M30 15.2397C30 6.95547 23.2843 0.239746 15 0.239746C6.71573 0.239746 0 6.95547 0 15.2397C0 23.524 6.71573 30.2397 15 30.2397C23.2843 30.2397 30 23.524 30 15.2397Z" fill="#52C08B"/>
<mask id="mask0_9_2308" style="mask-type:luminance" maskUnits="userSpaceOnUse" x="9" y="9" width="12" height="13">
<path d="M21 9.23975H9V21.2397H21V9.23975Z" fill="white"/>
</mask>
<g mask="url(#mask0_9_2308)">
<path d="M21 11.519C20.5538 11.7147 20.0782 11.8444 19.5825 11.9074C20.0925 11.6029 20.4818 11.1244 20.6648 10.5477C20.1892 10.8312 19.6642 11.0315 19.1047 11.1432C18.6532 10.6625 18.0097 10.3647 17.3077 10.3647C15.9457 10.3647 14.8492 11.4702 14.8492 12.8255C14.8492 13.0205 14.8657 13.2079 14.9062 13.3864C12.861 13.2867 11.0512 12.3065 9.8355 10.8132C9.62325 11.1815 9.49875 11.603 9.49875 12.0567C9.49875 12.9087 9.9375 13.6639 10.5915 14.1012C10.1962 14.0937 9.8085 13.9789 9.48 13.7982C9.48 13.8057 9.48 13.8154 9.48 13.8252C9.48 15.0207 10.3327 16.0137 11.451 16.2424C11.2507 16.2972 11.0325 16.3234 10.806 16.3234C10.6485 16.3234 10.4895 16.3144 10.3403 16.2814C10.659 17.2557 11.5635 17.9719 12.639 17.9952C11.802 18.6499 10.7393 19.0445 9.58875 19.0445C9.387 19.0445 9.1935 19.0354 9 19.0107C10.0897 19.7135 11.3813 20.1147 12.774 20.1147C17.301 20.1147 19.776 16.3647 19.776 13.1142C19.776 13.0054 19.7723 12.9005 19.767 12.7962C20.2552 12.4497 20.6655 12.017 21 11.519Z" fill="white"/>
</g>
</g>
<defs>
<clipPath id="clip0_9_2308">
<rect width="30" height="30" fill="white" transform="translate(0 0.239746)"/>
</clipPath>
</defs>
</svg>
