<svg width="97" height="17" viewBox="0 0 97 17" fill="none" xmlns="http://www.w3.org/2000/svg">
<g clip-path="url(#clip0_5_1699)">
<path d="M9.27069 1.59899L11.344 5.79899L15.98 6.47365C16.0824 6.48842 16.1786 6.53157 16.2578 6.59821C16.3369 6.66484 16.3958 6.75231 16.4278 6.8507C16.4598 6.94909 16.4636 7.05447 16.4388 7.15491C16.414 7.25535 16.3615 7.34683 16.2874 7.41899L12.932 10.6857L13.724 15.303C13.7415 15.405 13.7301 15.5098 13.6911 15.6057C13.6521 15.7015 13.587 15.7845 13.5034 15.8453C13.4196 15.9061 13.3206 15.9423 13.2174 15.9499C13.1142 15.9573 13.011 15.9358 12.9194 15.8877L8.77336 13.711L4.62666 15.8897C4.53499 15.9375 4.43175 15.9589 4.32859 15.9513C4.22542 15.9437 4.12644 15.9074 4.04279 15.8465C3.95914 15.7857 3.89414 15.7027 3.85514 15.6069C3.81612 15.5111 3.80465 15.4063 3.822 15.3043L4.614 10.6897L1.25867 7.42299C1.18453 7.35083 1.13207 7.25935 1.10725 7.15891C1.08242 7.05847 1.08622 6.95309 1.11821 6.8547C1.1502 6.75631 1.2091 6.66884 1.28824 6.6022C1.36738 6.53557 1.4636 6.49242 1.566 6.47765L6.202 5.79965L8.27536 1.59965C8.32122 1.50687 8.39209 1.42875 8.47996 1.37411C8.56789 1.31947 8.66929 1.29047 8.77282 1.29041C8.87629 1.29034 8.97776 1.31919 9.06569 1.37372C9.15369 1.42824 9.22469 1.50626 9.27069 1.59899Z" fill="#FF9D2A"/>
</g>
<g clip-path="url(#clip1_5_1699)">
<path d="M29.2707 1.59899L31.344 5.79899L35.98 6.47365C36.0824 6.48842 36.1786 6.53157 36.2578 6.59821C36.3369 6.66484 36.3958 6.75231 36.4278 6.8507C36.4598 6.94909 36.4636 7.05447 36.4388 7.15491C36.414 7.25535 36.3615 7.34683 36.2874 7.41899L32.932 10.6857L33.724 15.303C33.7415 15.405 33.7301 15.5098 33.6911 15.6057C33.6521 15.7015 33.587 15.7845 33.5034 15.8453C33.4196 15.9061 33.3206 15.9423 33.2174 15.9499C33.1142 15.9573 33.011 15.9358 32.9194 15.8877L28.7734 13.711L24.6267 15.8897C24.535 15.9375 24.4317 15.9589 24.3286 15.9513C24.2254 15.9437 24.1264 15.9074 24.0428 15.8465C23.9591 15.7857 23.8941 15.7027 23.8551 15.6069C23.8161 15.5111 23.8046 15.4063 23.822 15.3043L24.614 10.6897L21.2587 7.42299C21.1845 7.35083 21.1321 7.25935 21.1072 7.15891C21.0824 7.05847 21.0862 6.95309 21.1182 6.8547C21.1502 6.75631 21.2091 6.66884 21.2882 6.6022C21.3674 6.53557 21.4636 6.49242 21.566 6.47765L26.202 5.79965L28.2754 1.59965C28.3212 1.50687 28.3921 1.42875 28.48 1.37411C28.5679 1.31947 28.6693 1.29047 28.7728 1.29041C28.8763 1.29034 28.9778 1.31919 29.0657 1.37372C29.1537 1.42824 29.2247 1.50626 29.2707 1.59899Z" fill="#FF9D2A"/>
</g>
<g clip-path="url(#clip2_5_1699)">
<path d="M49.2707 1.59899L51.344 5.79899L55.98 6.47365C56.0824 6.48842 56.1786 6.53157 56.2578 6.59821C56.3369 6.66484 56.3958 6.75231 56.4278 6.8507C56.4598 6.94909 56.4636 7.05447 56.4388 7.15491C56.414 7.25535 56.3615 7.34683 56.2874 7.41899L52.932 10.6857L53.724 15.303C53.7415 15.405 53.7301 15.5098 53.6911 15.6057C53.6521 15.7015 53.587 15.7845 53.5034 15.8453C53.4196 15.9061 53.3206 15.9423 53.2174 15.9499C53.1142 15.9573 53.011 15.9358 52.9194 15.8877L48.7734 13.711L44.6267 15.8897C44.535 15.9375 44.4317 15.9589 44.3286 15.9513C44.2254 15.9437 44.1264 15.9074 44.0428 15.8465C43.9591 15.7857 43.8941 15.7027 43.8551 15.6069C43.8161 15.5111 43.8046 15.4063 43.822 15.3043L44.614 10.6897L41.2587 7.42299C41.1845 7.35083 41.1321 7.25935 41.1072 7.15891C41.0824 7.05847 41.0862 6.95309 41.1182 6.8547C41.1502 6.75631 41.2091 6.66884 41.2882 6.6022C41.3674 6.53557 41.4636 6.49242 41.566 6.47765L46.202 5.79965L48.2754 1.59965C48.3212 1.50687 48.3921 1.42875 48.48 1.37411C48.5679 1.31947 48.6693 1.29047 48.7728 1.29041C48.8763 1.29034 48.9778 1.31919 49.0657 1.37372C49.1537 1.42824 49.2247 1.50626 49.2707 1.59899Z" fill="#FF9D2A"/>
</g>
<g clip-path="url(#clip3_5_1699)">
<path d="M69.2707 1.59899L71.344 5.79899L75.98 6.47365C76.0824 6.48842 76.1786 6.53157 76.2578 6.59821C76.3369 6.66484 76.3958 6.75231 76.4278 6.8507C76.4598 6.94909 76.4636 7.05447 76.4388 7.15491C76.414 7.25535 76.3615 7.34683 76.2874 7.41899L72.932 10.6857L73.724 15.303C73.7415 15.405 73.7301 15.5098 73.6911 15.6057C73.6521 15.7015 73.587 15.7845 73.5034 15.8453C73.4196 15.9061 73.3206 15.9423 73.2174 15.9499C73.1142 15.9573 73.011 15.9358 72.9194 15.8877L68.7734 13.711L64.6267 15.8897C64.535 15.9375 64.4317 15.9589 64.3286 15.9513C64.2254 15.9437 64.1264 15.9074 64.0428 15.8465C63.9591 15.7857 63.8941 15.7027 63.8551 15.6069C63.8161 15.5111 63.8046 15.4063 63.822 15.3043L64.614 10.6897L61.2587 7.42299C61.1845 7.35083 61.1321 7.25935 61.1072 7.15891C61.0824 7.05847 61.0862 6.95309 61.1182 6.8547C61.1502 6.75631 61.2091 6.66884 61.2882 6.6022C61.3674 6.53557 61.4636 6.49242 61.566 6.47765L66.202 5.79965L68.2754 1.59965C68.3212 1.50687 68.3921 1.42875 68.48 1.37411C68.5679 1.31947 68.6693 1.29047 68.7728 1.29041C68.8763 1.29034 68.9778 1.31919 69.0657 1.37372C69.1537 1.42824 69.2247 1.50626 69.2707 1.59899Z" fill="#FF9D2A"/>
</g>
<g clip-path="url(#clip4_5_1699)">
<path d="M89.2707 1.59899L91.344 5.79899L95.98 6.47365C96.0824 6.48842 96.1786 6.53157 96.2578 6.59821C96.3369 6.66484 96.3958 6.75231 96.4278 6.8507C96.4598 6.94909 96.4636 7.05447 96.4388 7.15491C96.414 7.25535 96.3615 7.34683 96.2874 7.41899L92.932 10.6857L93.724 15.303C93.7415 15.405 93.7301 15.5098 93.6911 15.6057C93.6521 15.7015 93.587 15.7845 93.5034 15.8453C93.4196 15.9061 93.3206 15.9423 93.2174 15.9499C93.1142 15.9573 93.011 15.9358 92.9194 15.8877L88.7734 13.711L84.6267 15.8897C84.535 15.9375 84.4317 15.9589 84.3286 15.9513C84.2254 15.9437 84.1264 15.9074 84.0428 15.8465C83.9591 15.7857 83.8941 15.7027 83.8551 15.6069C83.8161 15.5111 83.8046 15.4063 83.822 15.3043L84.614 10.6897L81.2587 7.42299C81.1845 7.35083 81.1321 7.25935 81.1072 7.15891C81.0824 7.05847 81.0862 6.95309 81.1182 6.8547C81.1502 6.75631 81.2091 6.66884 81.2882 6.6022C81.3674 6.53557 81.4636 6.49242 81.566 6.47765L86.202 5.79965L88.2754 1.59965C88.3212 1.50687 88.3921 1.42875 88.48 1.37411C88.5679 1.31947 88.6693 1.29047 88.7728 1.29041C88.8763 1.29034 88.9778 1.31919 89.0657 1.37372C89.1537 1.42824 89.2247 1.50626 89.2707 1.59899Z" fill="#FF9D2A"/>
</g>
<defs>
<clipPath id="clip0_5_1699">
<rect width="16" height="16" fill="white" transform="translate(0.773438 0.623047)"/>
</clipPath>
<clipPath id="clip1_5_1699">
<rect width="16" height="16" fill="white" transform="translate(20.7734 0.623047)"/>
</clipPath>
<clipPath id="clip2_5_1699">
<rect width="16" height="16" fill="white" transform="translate(40.7734 0.623047)"/>
</clipPath>
<clipPath id="clip3_5_1699">
<rect width="16" height="16" fill="white" transform="translate(60.7734 0.623047)"/>
</clipPath>
<clipPath id="clip4_5_1699">
<rect width="16" height="16" fill="white" transform="translate(80.7734 0.623047)"/>
</clipPath>
</defs>
</svg>
