<svg width="97" height="17" viewBox="0 0 97 17" fill="none" xmlns="http://www.w3.org/2000/svg">
<g clip-path="url(#clip0_5_1725)">
<path d="M9.36444 1.59899L11.4378 5.79899L16.0738 6.47365C16.1762 6.48842 16.2724 6.53157 16.3515 6.59821C16.4306 6.66484 16.4896 6.75231 16.5216 6.8507C16.5535 6.94909 16.5573 7.05447 16.5325 7.15491C16.5077 7.25535 16.4552 7.34683 16.3811 7.41899L13.0258 10.6857L13.8178 15.303C13.8352 15.405 13.8238 15.5098 13.7848 15.6057C13.7458 15.7015 13.6808 15.7845 13.5971 15.8453C13.5134 15.9061 13.4143 15.9423 13.3111 15.9499C13.2079 15.9573 13.1047 15.9358 13.0131 15.8877L8.86711 13.711L4.72041 15.8897C4.62874 15.9375 4.5255 15.9589 4.42234 15.9513C4.31917 15.9437 4.22019 15.9074 4.13654 15.8465C4.05289 15.7857 3.98789 15.7027 3.94889 15.6069C3.90987 15.5111 3.8984 15.4063 3.91575 15.3043L4.70775 10.6897L1.35242 7.42299C1.27828 7.35083 1.22582 7.25935 1.201 7.15891C1.17617 7.05847 1.17997 6.95309 1.21196 6.8547C1.24395 6.75631 1.30285 6.66884 1.38199 6.6022C1.46113 6.53557 1.55735 6.49242 1.65975 6.47765L6.29575 5.79965L8.36911 1.59965C8.41497 1.50687 8.48584 1.42875 8.57371 1.37411C8.66164 1.31947 8.76304 1.29047 8.86657 1.29041C8.97004 1.29034 9.07151 1.31919 9.15944 1.37372C9.24744 1.42824 9.31844 1.50626 9.36444 1.59899Z" fill="#FF9D2A"/>
</g>
<g clip-path="url(#clip1_5_1725)">
<path d="M29.3644 1.59899L31.4378 5.79899L36.0738 6.47365C36.1762 6.48842 36.2724 6.53157 36.3515 6.59821C36.4306 6.66484 36.4896 6.75231 36.5216 6.8507C36.5535 6.94909 36.5573 7.05447 36.5325 7.15491C36.5077 7.25535 36.4552 7.34683 36.3811 7.41899L33.0258 10.6857L33.8178 15.303C33.8352 15.405 33.8238 15.5098 33.7848 15.6057C33.7458 15.7015 33.6808 15.7845 33.5971 15.8453C33.5134 15.9061 33.4143 15.9423 33.3111 15.9499C33.2079 15.9573 33.1047 15.9358 33.0131 15.8877L28.8671 13.711L24.7204 15.8897C24.6287 15.9375 24.5255 15.9589 24.4223 15.9513C24.3192 15.9437 24.2202 15.9074 24.1365 15.8465C24.0529 15.7857 23.9879 15.7027 23.9489 15.6069C23.9099 15.5111 23.8984 15.4063 23.9157 15.3043L24.7077 10.6897L21.3524 7.42299C21.2783 7.35083 21.2258 7.25935 21.201 7.15891C21.1762 7.05847 21.18 6.95309 21.212 6.8547C21.2439 6.75631 21.3028 6.66884 21.382 6.6022C21.4611 6.53557 21.5573 6.49242 21.6598 6.47765L26.2957 5.79965L28.3691 1.59965C28.415 1.50687 28.4858 1.42875 28.5737 1.37411C28.6616 1.31947 28.763 1.29047 28.8666 1.29041C28.97 1.29034 29.0715 1.31919 29.1594 1.37372C29.2474 1.42824 29.3184 1.50626 29.3644 1.59899Z" fill="#FF9D2A"/>
</g>
<g clip-path="url(#clip2_5_1725)">
<path d="M49.3644 1.59899L51.4378 5.79899L56.0738 6.47365C56.1762 6.48842 56.2724 6.53157 56.3515 6.59821C56.4306 6.66484 56.4896 6.75231 56.5216 6.8507C56.5535 6.94909 56.5573 7.05447 56.5325 7.15491C56.5077 7.25535 56.4552 7.34683 56.3811 7.41899L53.0258 10.6857L53.8178 15.303C53.8352 15.405 53.8238 15.5098 53.7848 15.6057C53.7458 15.7015 53.6808 15.7845 53.5971 15.8453C53.5134 15.9061 53.4143 15.9423 53.3111 15.9499C53.2079 15.9573 53.1047 15.9358 53.0131 15.8877L48.8671 13.711L44.7204 15.8897C44.6287 15.9375 44.5255 15.9589 44.4223 15.9513C44.3192 15.9437 44.2202 15.9074 44.1365 15.8465C44.0529 15.7857 43.9879 15.7027 43.9489 15.6069C43.9099 15.5111 43.8984 15.4063 43.9157 15.3043L44.7077 10.6897L41.3524 7.42299C41.2783 7.35083 41.2258 7.25935 41.201 7.15891C41.1762 7.05847 41.18 6.95309 41.212 6.8547C41.2439 6.75631 41.3028 6.66884 41.382 6.6022C41.4611 6.53557 41.5573 6.49242 41.6598 6.47765L46.2957 5.79965L48.3691 1.59965C48.415 1.50687 48.4858 1.42875 48.5737 1.37411C48.6616 1.31947 48.763 1.29047 48.8666 1.29041C48.97 1.29034 49.0715 1.31919 49.1594 1.37372C49.2474 1.42824 49.3184 1.50626 49.3644 1.59899Z" fill="#FF9D2A"/>
</g>
<g clip-path="url(#clip3_5_1725)">
<path d="M69.3644 1.59899L71.4378 5.79899L76.0738 6.47365C76.1762 6.48842 76.2724 6.53157 76.3515 6.59821C76.4306 6.66484 76.4896 6.75231 76.5216 6.8507C76.5535 6.94909 76.5573 7.05447 76.5325 7.15491C76.5077 7.25535 76.4552 7.34683 76.3811 7.41899L73.0258 10.6857L73.8178 15.303C73.8352 15.405 73.8238 15.5098 73.7848 15.6057C73.7458 15.7015 73.6808 15.7845 73.5971 15.8453C73.5134 15.9061 73.4143 15.9423 73.3111 15.9499C73.2079 15.9573 73.1047 15.9358 73.0131 15.8877L68.8671 13.711L64.7204 15.8897C64.6287 15.9375 64.5255 15.9589 64.4223 15.9513C64.3192 15.9437 64.2202 15.9074 64.1365 15.8465C64.0529 15.7857 63.9879 15.7027 63.9489 15.6069C63.9099 15.5111 63.8984 15.4063 63.9157 15.3043L64.7077 10.6897L61.3524 7.42299C61.2783 7.35083 61.2258 7.25935 61.201 7.15891C61.1762 7.05847 61.18 6.95309 61.212 6.8547C61.2439 6.75631 61.3028 6.66884 61.382 6.6022C61.4611 6.53557 61.5573 6.49242 61.6598 6.47765L66.2957 5.79965L68.3691 1.59965C68.415 1.50687 68.4858 1.42875 68.5737 1.37411C68.6616 1.31947 68.763 1.29047 68.8666 1.29041C68.97 1.29034 69.0715 1.31919 69.1594 1.37372C69.2474 1.42824 69.3184 1.50626 69.3644 1.59899Z" fill="#FF9D2A"/>
</g>
<g clip-path="url(#clip4_5_1725)">
<path d="M89.3644 1.59899L91.4378 5.79899L96.0738 6.47365C96.1762 6.48842 96.2724 6.53157 96.3515 6.59821C96.4306 6.66484 96.4896 6.75231 96.5216 6.8507C96.5535 6.94909 96.5573 7.05447 96.5325 7.15491C96.5077 7.25535 96.4552 7.34683 96.3811 7.41899L93.0258 10.6857L93.8178 15.303C93.8352 15.405 93.8238 15.5098 93.7848 15.6057C93.7458 15.7015 93.6808 15.7845 93.5971 15.8453C93.5134 15.9061 93.4143 15.9423 93.3111 15.9499C93.2079 15.9573 93.1047 15.9358 93.0131 15.8877L88.8671 13.711L84.7204 15.8897C84.6287 15.9375 84.5255 15.9589 84.4223 15.9513C84.3192 15.9437 84.2202 15.9074 84.1365 15.8465C84.0529 15.7857 83.9879 15.7027 83.9489 15.6069C83.9099 15.5111 83.8984 15.4063 83.9157 15.3043L84.7077 10.6897L81.3524 7.42299C81.2783 7.35083 81.2258 7.25935 81.201 7.15891C81.1762 7.05847 81.18 6.95309 81.212 6.8547C81.2439 6.75631 81.3028 6.66884 81.382 6.6022C81.4611 6.53557 81.5573 6.49242 81.6598 6.47765L86.2957 5.79965L88.3691 1.59965C88.415 1.50687 88.4858 1.42875 88.5737 1.37411C88.6616 1.31947 88.763 1.29047 88.8666 1.29041C88.97 1.29034 89.0715 1.31919 89.1594 1.37372C89.2474 1.42824 89.3184 1.50626 89.3644 1.59899Z" fill="#FF9D2A"/>
</g>
<defs>
<clipPath id="clip0_5_1725">
<rect width="16" height="16" fill="white" transform="translate(0.867188 0.623047)"/>
</clipPath>
<clipPath id="clip1_5_1725">
<rect width="16" height="16" fill="white" transform="translate(20.8672 0.623047)"/>
</clipPath>
<clipPath id="clip2_5_1725">
<rect width="16" height="16" fill="white" transform="translate(40.8672 0.623047)"/>
</clipPath>
<clipPath id="clip3_5_1725">
<rect width="16" height="16" fill="white" transform="translate(60.8672 0.623047)"/>
</clipPath>
<clipPath id="clip4_5_1725">
<rect width="16" height="16" fill="white" transform="translate(80.8672 0.623047)"/>
</clipPath>
</defs>
</svg>
