<svg width="97" height="17" viewBox="0 0 97 17" fill="none" xmlns="http://www.w3.org/2000/svg">
<g clip-path="url(#clip0_5_1753)">
<path d="M9.39569 1.59899L11.469 5.79899L16.105 6.47365C16.2074 6.48842 16.3036 6.53157 16.3828 6.59821C16.4619 6.66484 16.5208 6.75231 16.5528 6.8507C16.5848 6.94909 16.5886 7.05447 16.5638 7.15491C16.539 7.25535 16.4865 7.34683 16.4124 7.41899L13.057 10.6857L13.849 15.303C13.8665 15.405 13.8551 15.5098 13.8161 15.6057C13.7771 15.7015 13.712 15.7845 13.6284 15.8453C13.5446 15.9061 13.4456 15.9423 13.3424 15.9499C13.2392 15.9573 13.136 15.9358 13.0444 15.8877L8.89836 13.711L4.75166 15.8897C4.65999 15.9375 4.55675 15.9589 4.45359 15.9513C4.35042 15.9437 4.25144 15.9074 4.16779 15.8465C4.08414 15.7857 4.01914 15.7027 3.98014 15.6069C3.94112 15.5111 3.92965 15.4063 3.947 15.3043L4.739 10.6897L1.38367 7.42299C1.30953 7.35083 1.25707 7.25935 1.23225 7.15891C1.20742 7.05847 1.21122 6.95309 1.24321 6.8547C1.2752 6.75631 1.3341 6.66884 1.41324 6.6022C1.49238 6.53557 1.5886 6.49242 1.691 6.47765L6.327 5.79965L8.40036 1.59965C8.44622 1.50687 8.51709 1.42875 8.60496 1.37411C8.69289 1.31947 8.79429 1.29047 8.89782 1.29041C9.00129 1.29034 9.10276 1.31919 9.19069 1.37372C9.27869 1.42824 9.34969 1.50626 9.39569 1.59899Z" fill="#FF9D2A"/>
</g>
<g clip-path="url(#clip1_5_1753)">
<path d="M29.3957 1.59899L31.469 5.79899L36.105 6.47365C36.2074 6.48842 36.3036 6.53157 36.3828 6.59821C36.4619 6.66484 36.5208 6.75231 36.5528 6.8507C36.5848 6.94909 36.5886 7.05447 36.5638 7.15491C36.539 7.25535 36.4865 7.34683 36.4124 7.41899L33.057 10.6857L33.849 15.303C33.8665 15.405 33.8551 15.5098 33.8161 15.6057C33.7771 15.7015 33.712 15.7845 33.6284 15.8453C33.5446 15.9061 33.4456 15.9423 33.3424 15.9499C33.2392 15.9573 33.136 15.9358 33.0444 15.8877L28.8984 13.711L24.7517 15.8897C24.66 15.9375 24.5567 15.9589 24.4536 15.9513C24.3504 15.9437 24.2514 15.9074 24.1678 15.8465C24.0841 15.7857 24.0191 15.7027 23.9801 15.6069C23.9411 15.5111 23.9296 15.4063 23.947 15.3043L24.739 10.6897L21.3837 7.42299C21.3095 7.35083 21.2571 7.25935 21.2322 7.15891C21.2074 7.05847 21.2112 6.95309 21.2432 6.8547C21.2752 6.75631 21.3341 6.66884 21.4132 6.6022C21.4924 6.53557 21.5886 6.49242 21.691 6.47765L26.327 5.79965L28.4004 1.59965C28.4462 1.50687 28.5171 1.42875 28.605 1.37411C28.6929 1.31947 28.7943 1.29047 28.8978 1.29041C29.0013 1.29034 29.1028 1.31919 29.1907 1.37372C29.2787 1.42824 29.3497 1.50626 29.3957 1.59899Z" fill="#FF9D2A"/>
</g>
<g clip-path="url(#clip2_5_1753)">
<path d="M49.3957 1.59899L51.469 5.79899L56.105 6.47365C56.2074 6.48842 56.3036 6.53157 56.3828 6.59821C56.4619 6.66484 56.5208 6.75231 56.5528 6.8507C56.5848 6.94909 56.5886 7.05447 56.5638 7.15491C56.539 7.25535 56.4865 7.34683 56.4124 7.41899L53.057 10.6857L53.849 15.303C53.8665 15.405 53.8551 15.5098 53.8161 15.6057C53.7771 15.7015 53.712 15.7845 53.6284 15.8453C53.5446 15.9061 53.4456 15.9423 53.3424 15.9499C53.2392 15.9573 53.136 15.9358 53.0444 15.8877L48.8984 13.711L44.7517 15.8897C44.66 15.9375 44.5567 15.9589 44.4536 15.9513C44.3504 15.9437 44.2514 15.9074 44.1678 15.8465C44.0841 15.7857 44.0191 15.7027 43.9801 15.6069C43.9411 15.5111 43.9296 15.4063 43.947 15.3043L44.739 10.6897L41.3837 7.42299C41.3095 7.35083 41.2571 7.25935 41.2322 7.15891C41.2074 7.05847 41.2112 6.95309 41.2432 6.8547C41.2752 6.75631 41.3341 6.66884 41.4132 6.6022C41.4924 6.53557 41.5886 6.49242 41.691 6.47765L46.327 5.79965L48.4004 1.59965C48.4462 1.50687 48.5171 1.42875 48.605 1.37411C48.6929 1.31947 48.7943 1.29047 48.8978 1.29041C49.0013 1.29034 49.1028 1.31919 49.1907 1.37372C49.2787 1.42824 49.3497 1.50626 49.3957 1.59899Z" fill="#FF9D2A"/>
</g>
<g clip-path="url(#clip3_5_1753)">
<path d="M69.3957 1.59899L71.469 5.79899L76.105 6.47365C76.2074 6.48842 76.3036 6.53157 76.3828 6.59821C76.4619 6.66484 76.5208 6.75231 76.5528 6.8507C76.5848 6.94909 76.5886 7.05447 76.5638 7.15491C76.539 7.25535 76.4865 7.34683 76.4124 7.41899L73.057 10.6857L73.849 15.303C73.8665 15.405 73.8551 15.5098 73.8161 15.6057C73.7771 15.7015 73.712 15.7845 73.6284 15.8453C73.5446 15.9061 73.4456 15.9423 73.3424 15.9499C73.2392 15.9573 73.136 15.9358 73.0444 15.8877L68.8984 13.711L64.7517 15.8897C64.66 15.9375 64.5567 15.9589 64.4536 15.9513C64.3504 15.9437 64.2514 15.9074 64.1678 15.8465C64.0841 15.7857 64.0191 15.7027 63.9801 15.6069C63.9411 15.5111 63.9296 15.4063 63.947 15.3043L64.739 10.6897L61.3837 7.42299C61.3095 7.35083 61.2571 7.25935 61.2322 7.15891C61.2074 7.05847 61.2112 6.95309 61.2432 6.8547C61.2752 6.75631 61.3341 6.66884 61.4132 6.6022C61.4924 6.53557 61.5886 6.49242 61.691 6.47765L66.327 5.79965L68.4004 1.59965C68.4462 1.50687 68.5171 1.42875 68.605 1.37411C68.6929 1.31947 68.7943 1.29047 68.8978 1.29041C69.0013 1.29034 69.1028 1.31919 69.1907 1.37372C69.2787 1.42824 69.3497 1.50626 69.3957 1.59899Z" fill="#FF9D2A"/>
</g>
<g clip-path="url(#clip4_5_1753)">
<path d="M89.3957 1.59899L91.469 5.79899L96.105 6.47365C96.2074 6.48842 96.3036 6.53157 96.3828 6.59821C96.4619 6.66484 96.5208 6.75231 96.5528 6.8507C96.5848 6.94909 96.5886 7.05447 96.5638 7.15491C96.539 7.25535 96.4865 7.34683 96.4124 7.41899L93.057 10.6857L93.849 15.303C93.8665 15.405 93.8551 15.5098 93.8161 15.6057C93.7771 15.7015 93.712 15.7845 93.6284 15.8453C93.5446 15.9061 93.4456 15.9423 93.3424 15.9499C93.2392 15.9573 93.136 15.9358 93.0444 15.8877L88.8984 13.711L84.7517 15.8897C84.66 15.9375 84.5567 15.9589 84.4536 15.9513C84.3504 15.9437 84.2514 15.9074 84.1678 15.8465C84.0841 15.7857 84.0191 15.7027 83.9801 15.6069C83.9411 15.5111 83.9296 15.4063 83.947 15.3043L84.739 10.6897L81.3837 7.42299C81.3095 7.35083 81.2571 7.25935 81.2322 7.15891C81.2074 7.05847 81.2112 6.95309 81.2432 6.8547C81.2752 6.75631 81.3341 6.66884 81.4132 6.6022C81.4924 6.53557 81.5886 6.49242 81.691 6.47765L86.327 5.79965L88.4004 1.59965C88.4462 1.50687 88.5171 1.42875 88.605 1.37411C88.6929 1.31947 88.7943 1.29047 88.8978 1.29041C89.0013 1.29034 89.1028 1.31919 89.1907 1.37372C89.2787 1.42824 89.3497 1.50626 89.3957 1.59899Z" fill="#FF9D2A"/>
</g>
<defs>
<clipPath id="clip0_5_1753">
<rect width="16" height="16" fill="white" transform="translate(0.898438 0.623047)"/>
</clipPath>
<clipPath id="clip1_5_1753">
<rect width="16" height="16" fill="white" transform="translate(20.8984 0.623047)"/>
</clipPath>
<clipPath id="clip2_5_1753">
<rect width="16" height="16" fill="white" transform="translate(40.8984 0.623047)"/>
</clipPath>
<clipPath id="clip3_5_1753">
<rect width="16" height="16" fill="white" transform="translate(60.8984 0.623047)"/>
</clipPath>
<clipPath id="clip4_5_1753">
<rect width="16" height="16" fill="white" transform="translate(80.8984 0.623047)"/>
</clipPath>
</defs>
</svg>
