<svg width="27" height="27" viewBox="0 0 27 27" fill="none" xmlns="http://www.w3.org/2000/svg">
<path d="M8.77607 20.9291C7.34495 20.9291 6.18705 22.1 6.18705 23.5311C6.18705 24.9622 7.34495 26.1331 8.77607 26.1331C10.2072 26.1331 11.3781 24.9622 11.3781 23.5311C11.3781 22.1 10.2072 20.9291 8.77607 20.9291ZM0.969971 1.41381C0.969971 2.12937 1.55543 2.71483 2.27099 2.71483H3.572L8.25567 12.5895L6.49929 15.764C5.54955 17.5074 6.79853 19.628 8.77607 19.628H23.0873C23.8028 19.628 24.3883 19.0426 24.3883 18.327C24.3883 17.6115 23.8028 17.026 23.0873 17.026H8.77607L10.2072 14.424H19.8998C20.8755 14.424 21.7342 13.8906 22.1765 13.0839L26.8342 4.64033C27.3156 3.78166 26.6911 2.71483 25.7023 2.71483H6.44725L5.57557 0.854372C5.36741 0.399016 4.89904 0.112793 4.40466 0.112793H2.27099C1.55543 0.112793 0.969971 0.69825 0.969971 1.41381ZM21.7862 20.9291C20.3551 20.9291 19.1972 22.1 19.1972 23.5311C19.1972 24.9622 20.3551 26.1331 21.7862 26.1331C23.2174 26.1331 24.3883 24.9622 24.3883 23.5311C24.3883 22.1 23.2174 20.9291 21.7862 20.9291Z" fill="#0C0E12"/>
</svg>
