<svg width="32" height="18" viewBox="0 0 32 18" fill="none" xmlns="http://www.w3.org/2000/svg">
<path d="M2.34454 10.8675C3.30399 10.8675 4.08899 10.0825 4.08899 9.1231C4.08899 8.16366 3.30399 7.37866 2.34454 7.37866C1.3851 7.37866 0.600098 8.16366 0.600098 9.1231C0.600098 10.0825 1.3851 10.8675 2.34454 10.8675ZM2.34454 17.8453C3.30399 17.8453 4.08899 17.0603 4.08899 16.1009C4.08899 15.1414 3.30399 14.3564 2.34454 14.3564C1.3851 14.3564 0.600098 15.1414 0.600098 16.1009C0.600098 17.0603 1.3851 17.8453 2.34454 17.8453ZM2.34454 3.88977C3.30399 3.88977 4.08899 3.10477 4.08899 2.14532C4.08899 1.18588 3.30399 0.400879 2.34454 0.400879C1.3851 0.400879 0.600098 1.18588 0.600098 2.14532C0.600098 3.10477 1.3851 3.88977 2.34454 3.88977ZM9.32232 10.8675H30.2557C31.2151 10.8675 32.0001 10.0825 32.0001 9.1231C32.0001 8.16366 31.2151 7.37866 30.2557 7.37866H9.32232C8.36288 7.37866 7.57788 8.16366 7.57788 9.1231C7.57788 10.0825 8.36288 10.8675 9.32232 10.8675ZM9.32232 17.8453H30.2557C31.2151 17.8453 32.0001 17.0603 32.0001 16.1009C32.0001 15.1414 31.2151 14.3564 30.2557 14.3564H9.32232C8.36288 14.3564 7.57788 15.1414 7.57788 16.1009C7.57788 17.0603 8.36288 17.8453 9.32232 17.8453ZM7.57788 2.14532C7.57788 3.10477 8.36288 3.88977 9.32232 3.88977H30.2557C31.2151 3.88977 32.0001 3.10477 32.0001 2.14532C32.0001 1.18588 31.2151 0.400879 30.2557 0.400879H9.32232C8.36288 0.400879 7.57788 1.18588 7.57788 2.14532ZM2.34454 10.8675C3.30399 10.8675 4.08899 10.0825 4.08899 9.1231C4.08899 8.16366 3.30399 7.37866 2.34454 7.37866C1.3851 7.37866 0.600098 8.16366 0.600098 9.1231C0.600098 10.0825 1.3851 10.8675 2.34454 10.8675ZM2.34454 17.8453C3.30399 17.8453 4.08899 17.0603 4.08899 16.1009C4.08899 15.1414 3.30399 14.3564 2.34454 14.3564C1.3851 14.3564 0.600098 15.1414 0.600098 16.1009C0.600098 17.0603 1.3851 17.8453 2.34454 17.8453ZM2.34454 3.88977C3.30399 3.88977 4.08899 3.10477 4.08899 2.14532C4.08899 1.18588 3.30399 0.400879 2.34454 0.400879C1.3851 0.400879 0.600098 1.18588 0.600098 2.14532C0.600098 3.10477 1.3851 3.88977 2.34454 3.88977ZM9.32232 10.8675H30.2557C31.2151 10.8675 32.0001 10.0825 32.0001 9.1231C32.0001 8.16366 31.2151 7.37866 30.2557 7.37866H9.32232C8.36288 7.37866 7.57788 8.16366 7.57788 9.1231C7.57788 10.0825 8.36288 10.8675 9.32232 10.8675ZM9.32232 17.8453H30.2557C31.2151 17.8453 32.0001 17.0603 32.0001 16.1009C32.0001 15.1414 31.2151 14.3564 30.2557 14.3564H9.32232C8.36288 14.3564 7.57788 15.1414 7.57788 16.1009C7.57788 17.0603 8.36288 17.8453 9.32232 17.8453ZM7.57788 2.14532C7.57788 3.10477 8.36288 3.88977 9.32232 3.88977H30.2557C31.2151 3.88977 32.0001 3.10477 32.0001 2.14532C32.0001 1.18588 31.2151 0.400879 30.2557 0.400879H9.32232C8.36288 0.400879 7.57788 1.18588 7.57788 2.14532Z" fill="#0C0E12"/>
</svg>
