<svg width="26" height="27" viewBox="0 0 26 27" fill="none" xmlns="http://www.w3.org/2000/svg">
<path d="M12.987 0.123047C5.811 0.123047 0 5.94705 0 13.123C0 20.299 5.811 26.123 12.987 26.123C20.176 26.123 26 20.299 26 13.123C26 5.94705 20.176 0.123047 12.987 0.123047ZM13 23.523C7.254 23.523 2.6 18.869 2.6 13.123C2.6 7.37705 7.254 2.72305 13 2.72305C18.746 2.72305 23.4 7.37705 23.4 13.123C23.4 18.869 18.746 23.523 13 23.523ZM12.714 6.62305H12.636C12.116 6.62305 11.7 7.03905 11.7 7.55905V13.695C11.7 14.15 11.934 14.579 12.337 14.813L17.732 18.05C18.174 18.31 18.746 18.18 19.006 17.738C19.279 17.296 19.136 16.711 18.681 16.451L13.65 13.461V7.55905C13.65 7.03905 13.234 6.62305 12.714 6.62305Z" fill="#0C0E12"/>
</svg>
