<svg width="50" height="30" viewBox="0 0 50 30" fill="none" xmlns="http://www.w3.org/2000/svg">
<path d="M2.532 0.000214298C2.20119 -0.00380146 1.87275 0.0486577 1.56577 0.154543C1.25879 0.260428 0.97938 0.417627 0.743792 0.617005C0.508203 0.816383 0.321129 1.05396 0.193442 1.31594C0.0657542 1.57792 0 1.85906 0 2.14304C0 2.42702 0.0657542 2.70817 0.193442 2.97014C0.321129 3.23212 0.508203 3.4697 0.743792 3.66908C0.97938 3.86845 1.25879 4.02565 1.56577 4.13154C1.87275 4.23742 2.20119 4.28988 2.532 4.28587H47.468C47.7988 4.28988 48.1272 4.23742 48.4342 4.13154C48.7412 4.02565 49.0206 3.86845 49.2562 3.66908C49.4918 3.4697 49.6789 3.23212 49.8066 2.97014C49.9342 2.70817 50 2.42702 50 2.14304C50 1.85906 49.9342 1.57792 49.8066 1.31594C49.6789 1.05396 49.4918 0.816383 49.2562 0.617005C49.0206 0.417627 48.7412 0.260428 48.4342 0.154543C48.1272 0.0486577 47.7988 -0.00380146 47.468 0.000214298H2.532ZM2.532 12.8572C2.20119 12.8532 1.87275 12.9056 1.56577 13.0115C1.25879 13.1174 0.97938 13.2746 0.743792 13.474C0.508203 13.6733 0.321129 13.9109 0.193442 14.1729C0.0657542 14.4349 0 14.716 0 15C0 15.284 0.0657542 15.5651 0.193442 15.8271C0.321129 16.0891 0.508203 16.3267 0.743792 16.526C0.97938 16.7254 1.25879 16.8826 1.56577 16.9885C1.87275 17.0944 2.20119 17.1468 2.532 17.1428H47.468C47.7988 17.1468 48.1272 17.0944 48.4342 16.9885C48.7412 16.8826 49.0206 16.7254 49.2562 16.526C49.4918 16.3267 49.6789 16.0891 49.8066 15.8271C49.9342 15.5651 50 15.284 50 15C50 14.716 49.9342 14.4349 49.8066 14.1729C49.6789 13.9109 49.4918 13.6733 49.2562 13.474C49.0206 13.2746 48.7412 13.1174 48.4342 13.0115C48.1272 12.9056 47.7988 12.8532 47.468 12.8572H2.532ZM2.532 25.7141C2.20119 25.7101 1.87275 25.7626 1.56577 25.8685C1.25879 25.9743 0.97938 26.1315 0.743792 26.3309C0.508203 26.5303 0.321129 26.7679 0.193442 27.0299C0.0657542 27.2918 0 27.573 0 27.857C0 28.1409 0.0657542 28.4221 0.193442 28.6841C0.321129 28.946 0.508203 29.1836 0.743792 29.383C0.97938 29.5824 1.25879 29.7396 1.56577 29.8455C1.87275 29.9513 2.20119 30.0038 2.532 29.9998H47.468C47.7988 30.0038 48.1272 29.9513 48.4342 29.8455C48.7412 29.7396 49.0206 29.5824 49.2562 29.383C49.4918 29.1836 49.6789 28.946 49.8066 28.6841C49.9342 28.4221 50 28.1409 50 27.857C50 27.573 49.9342 27.2918 49.8066 27.0299C49.6789 26.7679 49.4918 26.5303 49.2562 26.3309C49.0206 26.1315 48.7412 25.9743 48.4342 25.8685C48.1272 25.7626 47.7988 25.7101 47.468 25.7141H2.532Z" fill="#2D2D2D"/>
</svg>
