<svg width="28" height="26" viewBox="0 0 28 26" fill="none" xmlns="http://www.w3.org/2000/svg">
<path d="M24.5514 5.40092L11.8259 18.0435C11.3296 18.5366 10.5279 18.5366 10.0316 18.0435L6.43027 14.4657C5.93397 13.9726 5.93397 13.1761 6.43027 12.683C6.92656 12.19 7.72827 12.19 8.22456 12.683L10.9224 15.3633L22.7444 3.61832C23.2407 3.12526 24.0424 3.12526 24.5387 3.61832C25.0477 4.11138 25.0477 4.90786 24.5514 5.40092ZM12.7294 23.2396C6.73568 23.2396 1.93816 18.0688 2.61261 11.9877C3.10891 7.53752 6.58297 3.88381 11.0242 3.15054C13.3275 2.77127 15.5163 3.17583 17.3742 4.13667C17.8705 4.38952 18.4686 4.30102 18.8631 3.9091C19.4739 3.30226 19.3212 2.27821 18.5577 1.88629C16.687 0.938094 14.5746 0.419748 12.3222 0.482961C5.78127 0.685242 0.347473 5.96984 0.0166099 12.4555C-0.35243 19.7502 5.47585 25.7681 12.7294 25.7681C14.2565 25.7681 15.7072 25.5026 17.0688 25.0096C17.9341 24.6935 18.1759 23.5809 17.5142 22.9235C17.1706 22.5822 16.6488 22.4558 16.1907 22.6328C15.1091 23.0247 13.9383 23.2396 12.7294 23.2396ZM21.6372 16.9183H19.0921C18.3922 16.9183 17.8196 17.4872 17.8196 18.1826C17.8196 18.8779 18.3922 19.4468 19.0921 19.4468H21.6372V21.9753C21.6372 22.6707 22.2099 23.2396 22.9098 23.2396C23.6097 23.2396 24.1823 22.6707 24.1823 21.9753V19.4468H26.7274C27.4274 19.4468 28 18.8779 28 18.1826C28 17.4872 27.4274 16.9183 26.7274 16.9183H24.1823V14.3898C24.1823 13.6945 23.6097 13.1255 22.9098 13.1255C22.2099 13.1255 21.6372 13.6945 21.6372 14.3898V16.9183Z" fill="#0C0E12"/>
</svg>
