<svg width="49" height="49" viewBox="0 0 49 49" fill="none" xmlns="http://www.w3.org/2000/svg">
<g clip-path="url(#clip0_5_1692)">
<path d="M48.6797 24.623C48.6797 11.3682 37.9345 0.623047 24.6797 0.623047C11.4249 0.623047 0.679688 11.3682 0.679688 24.623C0.679688 37.8779 11.4249 48.623 24.6797 48.623C37.9345 48.623 48.6797 37.8779 48.6797 24.623Z" fill="black"/>
<path fill-rule="evenodd" clip-rule="evenodd" d="M26.8434 18.8472C26.2489 19.1676 26.0276 19.7089 26.0276 21.2035C26.0276 21.2035 26.3286 20.9041 26.775 20.7373C27.1006 20.6164 27.3787 20.4315 27.5392 20.3106C28.0415 19.9319 28.1195 19.4447 28.1195 18.6238C28.1195 18.6238 27.3003 18.6011 26.8434 18.8472ZM23.3179 19.1974C22.833 19.637 22.6913 20.3378 22.6913 20.3378L21.0863 26.7353L19.7515 21.4992C19.6214 20.9425 19.3871 20.2546 19.0161 19.7892C18.5438 19.1965 17.5837 19.1592 17.4816 19.1592C17.379 19.1592 16.4189 19.1965 15.9462 19.7892C15.5756 20.2546 15.3413 20.9425 15.2113 21.4992L13.8764 26.7353L12.271 20.3378C12.271 20.3378 12.1297 19.637 11.6449 19.1974C10.8586 18.4846 9.67969 18.6368 9.67969 18.6368L12.7533 30.5926C12.7533 30.5926 13.7672 30.6681 14.2749 30.4018C14.9411 30.0526 15.2584 29.7829 15.6619 28.1562C16.0212 26.7057 17.0263 22.4457 17.1201 22.1425C17.1668 21.9928 17.2256 21.6347 17.4816 21.6347C17.7425 21.6347 17.7967 21.9924 17.8422 22.1425C17.9343 22.4461 18.9411 26.7057 19.3008 28.1562C19.7044 29.7829 20.0212 30.0526 20.6878 30.4018C21.1951 30.6681 22.209 30.5926 22.209 30.5926L25.2826 18.6368C25.2826 18.6368 24.1041 18.4846 23.3179 19.1974ZM28.1185 20.5887C28.1185 20.5887 27.9263 20.8949 27.4873 21.1471C27.2059 21.3092 26.9354 21.419 26.6452 21.5622C26.1591 21.802 26.0274 22.0692 26.0274 22.4766V22.613V23.2426V23.2597V23.4017V30.5926C26.0274 30.5926 26.8032 30.6939 27.3106 30.4275C27.9634 30.0853 28.1135 29.7551 28.1193 28.2681V21.0219L28.1185 20.5887ZM35.7798 24.6438L39.6797 18.6764C39.6797 18.6764 38.0339 18.3882 37.2189 19.1511C36.6974 19.6396 36.1141 20.518 36.1141 20.518L34.6792 22.6461C34.6096 22.7567 34.5183 22.8772 34.3728 22.8772C34.2274 22.8772 34.1365 22.7567 34.0669 22.6461L32.632 20.518C32.632 20.518 32.0487 19.6396 31.5272 19.1511C30.7122 18.3882 29.0664 18.6764 29.0664 18.6764L32.9659 24.6438L29.0764 30.5927C29.0764 30.5927 30.7906 30.8157 31.6056 30.0519C32.1271 29.5638 32.632 28.7695 32.632 28.7695L34.0669 26.6419C34.1365 26.5308 34.2274 26.4107 34.3728 26.4107C34.5183 26.4107 34.6096 26.5308 34.6792 26.6419L36.1141 28.7695C36.1141 28.7695 36.6482 29.5638 37.1697 30.0519C37.9851 30.8157 39.6693 30.5927 39.6693 30.5927L35.7798 24.6438Z" fill="white"/>
</g>
<defs>
<clipPath id="clip0_5_1692">
<rect width="48" height="48" fill="white" transform="translate(0.679688 0.623047)"/>
</clipPath>
</defs>
</svg>
