<svg width="56" height="57" viewBox="0 0 56 57" fill="none" xmlns="http://www.w3.org/2000/svg">
<rect y="0.443115" width="56" height="56" rx="28" fill="white"/>
<path d="M27.1572 19.0244V31.2735H17.0115L27.1572 19.0244Z" fill="#03363D"/>
<path d="M27.1572 14.6277C27.1572 15.9731 26.6227 17.2634 25.6714 18.2147C24.72 19.1661 23.4297 19.7005 22.0843 19.7005C20.7389 19.7005 19.4486 19.1661 18.4973 18.2147C17.5459 17.2634 17.0115 15.9731 17.0115 14.6277H27.1572Z" fill="#03363D"/>
<path d="M28.8286 31.2735C28.8286 29.9281 29.3631 28.6378 30.3144 27.6865C31.2658 26.7351 32.5561 26.2007 33.9015 26.2007C35.2469 26.2007 36.5372 26.7351 37.4885 27.6865C38.4399 28.6378 38.9743 29.9281 38.9743 31.2735H28.8286Z" fill="#03363D"/>
<path d="M28.8286 26.8768V14.6277H38.9754L28.8286 26.8768Z" fill="#03363D"/>
<path d="M34.504 41.7524C35.0257 41.764 35.5309 41.569 35.9095 41.2097L36.6062 41.9618C36.1461 42.435 35.5079 42.7867 34.5159 42.7867C32.8152 42.7867 31.7168 41.659 31.7168 40.132C31.7099 39.7822 31.7735 39.4347 31.9039 39.1101C32.0342 38.7854 32.2286 38.4904 32.4755 38.2425C32.7223 37.9947 33.0166 37.7991 33.3406 37.6674C33.6647 37.5357 34.012 37.4707 34.3618 37.4761C36.0506 37.4761 37.0078 38.7612 36.9242 40.5433H32.9324C33.0735 41.2835 33.5934 41.7556 34.5029 41.7556M35.7195 39.6935C35.611 39.0021 35.1997 38.4931 34.3726 38.4931C33.6053 38.4931 33.0702 38.9272 32.9324 39.6935H35.7195Z" fill="#03363D"/>
<path d="M8.29199 41.6971L11.3646 38.5757H8.36471V37.5967H12.7885V38.5963L9.71595 41.7166H12.8298V42.6967H8.29199V41.6971Z" fill="#03363D"/>
<path d="M16.2801 41.7524C16.8018 41.764 17.307 41.569 17.6856 41.2097L18.3824 41.9618C17.9222 42.435 17.284 42.7867 16.292 42.7867C14.5913 42.7867 13.4929 41.659 13.4929 40.132C13.486 39.7822 13.5497 39.4347 13.68 39.1101C13.8104 38.7854 14.0047 38.4904 14.2516 38.2425C14.4984 37.9947 14.7927 37.7991 15.1168 37.6674C15.4408 37.5357 15.7881 37.4707 16.1379 37.4761C17.8267 37.4761 18.7839 38.7612 18.7004 40.5433H14.7085C14.8496 41.2835 15.3695 41.7556 16.279 41.7556M17.4957 39.6935C17.3871 39.0021 16.9758 38.4931 16.1488 38.4931C15.3814 38.4931 14.8464 38.9272 14.7085 39.6935H17.4957Z" fill="#03363D"/>
<path d="M25.334 40.1311C25.334 38.503 26.5528 37.4785 27.8943 37.4785C28.2164 37.4742 28.5356 37.5405 28.8294 37.6727C29.1232 37.8049 29.3845 37.9997 29.595 38.2437V35.2351H30.6803V42.6816H29.595V41.9772C29.3886 42.2311 29.1276 42.4354 28.8315 42.5748C28.5354 42.7142 28.2118 42.7852 27.8845 42.7825C26.5821 42.7825 25.334 41.7525 25.334 40.1311ZM29.6558 40.1213C29.6472 39.803 29.545 39.4942 29.362 39.2337C29.1789 38.9731 28.923 38.7723 28.6264 38.6564C28.3298 38.5405 28.0056 38.5147 27.6944 38.582C27.3831 38.6494 27.0987 38.8071 26.8766 39.0353C26.6545 39.2635 26.5046 39.5521 26.4457 39.8651C26.3868 40.178 26.4214 40.5014 26.5453 40.7947C26.6692 41.0881 26.8769 41.3384 27.1423 41.5144C27.4077 41.6903 27.7191 41.7841 28.0376 41.784C28.9699 41.784 29.6558 41.0395 29.6558 40.1213Z" fill="#03363D"/>
<path d="M37.6306 41.5994L38.6139 41.0893C38.7439 41.321 38.9348 41.5129 39.1658 41.6441C39.3969 41.7753 39.6594 41.8409 39.925 41.8338C40.5393 41.8338 40.8573 41.518 40.8573 41.1609C40.8573 40.7528 40.2636 40.6606 39.6179 40.5282C38.7496 40.3448 37.8455 40.0582 37.8455 39.0087C37.8455 38.2023 38.6128 37.4578 39.8219 37.4686C40.7737 37.4686 41.4814 37.8463 41.884 38.4574L40.9724 38.9577C40.8464 38.7712 40.675 38.6198 40.4742 38.518C40.2735 38.4162 40.0501 38.3673 39.8252 38.376C39.2413 38.376 38.9439 38.6614 38.9439 38.9881C38.9439 39.3549 39.4149 39.457 40.1529 39.6208C40.993 39.8043 41.9448 40.0799 41.9448 41.1403C41.9448 41.8436 41.3305 42.7922 39.8762 42.7824C38.8115 42.7824 38.0637 42.3537 37.6328 41.5994" fill="#03363D"/>
<path d="M44.8916 40.4164L44.0309 41.3552V42.6804H42.9456V35.2339H44.0309V40.1103L46.3351 37.5804H47.657L45.6589 39.763L47.708 42.6804H46.4794L44.8916 40.4164Z" fill="#03363D"/>
<path d="M22.0529 37.4773C20.7624 37.4773 19.6814 38.3141 19.6814 39.7011V42.6804H20.7874V39.839C20.7874 39.0022 21.2682 38.5019 22.0898 38.5019C22.9114 38.5019 23.3194 39.0022 23.3194 39.839V42.6804H24.42V39.7011C24.42 38.3141 23.3346 37.4773 22.0485 37.4773" fill="#03363D"/>
</svg>
